Coordinates
version=1
nRows=11
nColumns=40
inDegrees=yes

Units are S.I. units (second, meters, Newtons, ...)
If the header above contains a line with 'inDegrees', this indicates whether rotational values are in degrees (yes) or radians (no).

endheader
time	pelvis_tilt	pelvis_list	pelvis_rotation	pelvis_tx	pelvis_ty	pelvis_tz	hip_flexion_r	hip_adduction_r	hip_rotation_r	knee_angle_r	knee_angle_r_beta	ankle_angle_r	subtalar_angle_r	mtp_angle_r	hip_flexion_l	hip_adduction_l	hip_rotation_l	knee_angle_l	knee_angle_l_beta	ankle_angle_l	subtalar_angle_l	mtp_angle_l	lumbar_extension	lumbar_bending	lumbar_rotation	arm_flex_r	arm_add_r	arm_rot_r	elbow_flex_r	pro_sup_r	wrist_flex_r	wrist_dev_r	arm_flex_l	arm_add_l	arm_rot_l	elbow_flex_l	pro_sup_l	wrist_flex_l	wrist_dev_l
      2.11000000	      4.60068481	     10.60331732	    -89.60686782	      0.21077893	      0.92079416	      2.07795834	     30.77820434	     -6.25335176	     -2.54217813	     58.11031977	      1.01421641	      4.90246797	      0.00000000	      0.00000000	     12.26534429	      8.68919891	      5.21815227	      2.84569171	      0.04966669	      0.81982299	      0.00000000	      0.00000000	      6.63653961	     -6.31749220	     -2.65021871	      0.00000000	      0.00000000	      0.00000000	      0.00000000	      0.00000000	      0.00000000	      0.00000000	      0.00000000	      0.00000000	      0.00000000	      0.00000000	      0.00000000	      0.00000000	      0.00000000
      2.12000000	      4.43241140	     10.66973188	    -89.58745781	      0.21127979	      0.92072312	      2.09000764	     31.95355992	     -6.03924171	     -2.65690435	     56.19383415	      0.98076743	      5.76440672	      0.00000000	      0.00000000	     11.18276071	      8.54255535	      5.54805261	      2.29642618	      0.04008020	      1.34396500	      0.00000000	      0.00000000	      6.70953606	     -6.06597696	     -2.79739519	      0.00000000	      0.00000000	      0.00000000	      0.00000000	      0.00000000	      0.00000000	      0.00000000	      0.00000000	      0.00000000	      0.00000000	      0.00000000	      0.00000000	      0.00000000	      0.00000000
      2.13000000	      4.31442813	     10.60653886	    -89.56627317	      0.21178004	      0.92058632	      2.10215716	     32.87783974	     -5.89121478	     -2.82646895	     54.03028855	      0.94300643	      6.53655495	      0.00000000	      0.00000000	      9.93565300	      8.44821489	      5.97209896	      1.70735969	      0.02979905	      1.89889604	      0.00000000	      0.00000000	      6.63773413	     -5.88453267	     -2.94098229	      0.00000000	      0.00000000	      0.00000000	      0.00000000	      0.00000000	      0.00000000	      0.00000000	      0.00000000	      0.00000000	      0.00000000	      0.00000000	      0.00000000	      0.00000000	      0.00000000
      2.14000000	      4.18643180	     10.40195775	    -89.52661988	      0.21227038	      0.92040143	      2.11446219	     33.53226657	     -5.76546618	     -3.10662865	     51.64986047	      0.90146012	      7.18526483	      0.00000000	     -0.00000000	      8.52022087	      8.33905951	      6.53430059	      1.12400887	      0.01961766	      2.48499102	     -0.00000000	      0.00000000	      6.41556686	     -5.68686062	     -3.09930588	     -0.00000000	     -0.00000000	      0.00000000	      0.00000000	      0.00000000	      0.00000000	      0.00000000	      0.00000000	      0.00000000	     -0.00000000	      0.00000000	      0.00000000	     -0.00000000	     -0.00000000
      2.15000000	      4.11105921	     10.12403763	    -89.48581413	      0.21272670	      0.92006465	      2.12679753	     34.02433259	     -5.69559519	     -3.43856853	     49.09594673	      0.85688592	      7.60644274	      0.00000000	      0.00000000	      7.02494317	      8.27618081	      7.02561800	      0.53003015	      0.00925077	      3.03906523	      0.00000000	      0.00000000	      6.07937090	     -5.56370547	     -3.28860096	      0.00000000	      0.00000000	      0.00000000	      0.00000000	      0.00000000	      0.00000000	      0.00000000	      0.00000000	      0.00000000	      0.00000000	      0.00000000	      0.00000000	      0.00000000	      0.00000000
      2.16000000	      4.38119566	     10.28739798	    -89.44571378	      0.21340212	      0.91870881	      2.13858790	     35.10528969	     -6.05385770	     -3.78018885	     46.64340797	      0.81408104	      7.89859658	      0.00000000	      0.00000000	      6.32950041	      8.61531672	      6.91731157	      0.48663545	      0.00849339	      3.28238117	      0.00000000	      0.00000000	      6.23427470	     -5.86571040	     -3.48604297	      0.00000000	      0.00000000	      0.00000000	      0.00000000	      0.00000000	      0.00000000	      0.00000000	      0.00000000	      0.00000000	      0.00000000	      0.00000000	      0.00000000	      0.00000000	      0.00000000
      2.17000000	      4.00851078	      9.73879733	    -89.42907956	      0.21342032	      0.91845058	      2.15131508	     34.98475651	     -5.53660251	     -4.16672130	     43.52318847	      0.75962294	      8.01788821	      0.00000000	      0.00000000	      4.34920033	      8.17667113	      7.84790712	     -0.41891005	     -0.00731136	      4.24263598	      0.00000000	      0.00000000	      5.61091736	     -5.38781197	     -3.53984122	      0.00000000	      0.00000000	      0.00000000	      0.00000000	      0.00000000	      0.00000000	      0.00000000	      0.00000000	      0.00000000	      0.00000000	      0.00000000	      0.00000000	      0.00000000	      0.00000000
      2.18000000	      3.97372631	      9.64853701	    -89.41230382	      0.21364202	      0.91718914	      2.16353680	     35.46236544	     -5.42901612	     -4.55399650	     40.51880465	      0.70718655	      7.96433710	      0.00000000	      0.00000000	      3.18472954	      8.13657411	      8.15903664	     -0.77466272	     -0.01352041	      4.92433310	      0.00000000	      0.00000000	      5.48994739	     -5.33363084	     -3.63464892	      0.00000000	      0.00000000	      0.00000000	      0.00000000	      0.00000000	      0.00000000	      0.00000000	      0.00000000	      0.00000000	      0.00000000	      0.00000000	      0.00000000	      0.00000000	      0.00000000
      2.19000000	      3.94910948	      9.56221181	    -89.40181051	      0.21377301	      0.91574146	      2.17576437	     35.85574346	     -5.29680088	     -4.94324870	     37.36546066	      0.65215031	      7.75863485	      0.00000000	      0.00000000	      2.01844668	      8.10185641	      8.46453038	     -1.14123663	     -0.01991834	      5.58641911	      0.00000000	      0.00000000	      5.35949741	     -5.29171386	     -3.70868886	      0.00000000	      0.00000000	      0.00000000	      0.00000000	      0.00000000	      0.00000000	      0.00000000	      0.00000000	      0.00000000	      0.00000000	      0.00000000	      0.00000000	      0.00000000	      0.00000000
      2.20000000	      3.94155489	      9.46217566	    -89.39957111	      0.21382304	      0.91414963	      2.18808343	     36.14183069	     -5.14165963	     -5.30977413	     34.07895375	      0.59478995	      7.39646062	      0.00000000	      0.00000000	      0.84066264	      8.07851664	      8.76008893	     -1.48548120	     -0.02592654	      6.23044121	      0.00000000	      0.00000000	      5.22422782	     -5.27731370	     -3.79979713	      0.00000000	      0.00000000	      0.00000000	      0.00000000	      0.00000000	      0.00000000	      0.00000000	      0.00000000	      0.00000000	      0.00000000	      0.00000000	      0.00000000	      0.00000000	      0.00000000
      2.21000000	      3.93657569	      9.32499309	    -89.39897937	      0.21376405	      0.91250073	      2.20044675	     36.27170534	     -4.95318089	     -5.65340901	     30.62832346	      0.53456509	      6.88959925	      0.00000000	      0.00000000	     -0.38221120	      8.04619530	      9.02559664	     -1.84169319	     -0.03214361	      6.85462246	      0.00000000	      0.00000000	      5.03633839	     -5.27476926	     -3.87095067	      0.00000000	      0.00000000	      0.00000000	      0.00000000	      0.00000000	      0.00000000	      0.00000000	      0.00000000	      0.00000000	      0.00000000	      0.00000000	      0.00000000	      0.00000000	      0.00000000
